<svg width="1080" height="247" viewBox="0 0 1080 247" fill="none" xmlns="http://www.w3.org/2000/svg">
<g clip-path="url(#clip0_2_3)">
<path d="M625.468 204.144C625.533 202.806 625.958 201.511 626.697 200.397L630.019 194.04H633.009L630.883 200.497C631.573 200.791 632.16 201.285 632.568 201.917C632.977 202.549 633.188 203.29 633.176 204.043C633.176 205.082 632.766 206.077 632.037 206.811C631.308 207.545 630.319 207.958 629.288 207.958C628.257 207.958 627.269 207.545 626.54 206.811C625.811 206.077 625.401 205.082 625.401 204.043M636.365 204.043C636.455 202.7 636.902 201.406 637.661 200.296L640.983 193.94H643.973L641.847 200.397C642.537 200.69 643.123 201.185 643.532 201.817C643.94 202.449 644.152 203.189 644.139 203.943C644.139 204.99 643.726 205.994 642.991 206.735C642.256 207.475 641.259 207.891 640.219 207.891C639.179 207.891 638.182 207.475 637.447 206.735C636.712 205.994 636.299 204.99 636.299 203.943" fill="black"/>
<path d="M654.107 194.074H660.751L667.828 215.552C668.592 217.794 669.356 221.306 669.356 221.306C669.356 221.306 670.353 217.961 671.316 215.552L680.519 193.672H681.283L690.52 215.552C691.252 217.435 691.885 219.356 692.413 221.306C692.413 221.306 693.244 217.961 694.008 215.552L701.085 194.074H707.165L693.31 234.822H692.546L682.579 210.801C681.943 209.192 681.389 207.55 680.918 205.884C680.918 205.884 679.988 208.861 679.157 210.801L668.958 234.822H668.193L654.107 194.074Z" fill="black"/>
<path d="M714.175 191.565H720.122V213.812C720.89 212.29 722.073 211.019 723.532 210.148C724.991 209.277 726.666 208.842 728.361 208.894C733.843 208.894 737.597 212.809 737.597 219.567V234.354H731.65V220.069C731.65 216.522 729.989 214.448 726.534 214.448C725.679 214.373 724.817 214.486 724.01 214.779C723.203 215.073 722.468 215.54 721.858 216.148C721.248 216.756 720.777 217.49 720.477 218.3C720.177 219.11 720.056 219.976 720.122 220.838V234.22H714.175V191.565Z" fill="black"/>
<path d="M755.97 232.146L745.837 209.497H752.482L757.664 221.942C758.293 223.613 758.771 225.337 759.093 227.094C759.381 225.337 759.837 223.611 760.455 221.942L765.771 209.497H771.951L755.737 247H749.325L755.97 232.146Z" fill="black"/>
<path d="M796.536 209.497H802.483V214.113C803.228 212.526 804.417 211.192 805.904 210.277C807.392 209.362 809.113 208.904 810.855 208.961C816.337 208.961 820.092 212.876 820.092 219.634V234.421H814.145V220.135C814.145 216.589 812.483 214.515 809.028 214.515C808.173 214.439 807.312 214.552 806.504 214.846C805.697 215.139 804.963 215.606 804.352 216.215C803.742 216.823 803.271 217.557 802.971 218.367C802.671 219.177 802.55 220.043 802.616 220.905V234.287H796.669L796.536 209.497Z" fill="black"/>
<path d="M830.158 221.942C830.079 219.28 830.79 216.654 832.202 214.401C833.613 212.148 835.66 210.371 838.08 209.296C840.5 208.221 843.184 207.898 845.787 208.369C848.391 208.839 850.796 210.08 852.695 211.935C854.593 213.79 855.899 216.172 856.445 218.779C856.991 221.385 856.752 224.096 855.759 226.565C854.766 229.033 853.064 231.147 850.871 232.636C848.677 234.125 846.093 234.921 843.448 234.923C841.723 234.972 840.006 234.673 838.397 234.043C836.789 233.413 835.322 232.465 834.084 231.255C832.845 230.045 831.86 228.598 831.186 226.998C830.511 225.399 830.162 223.68 830.158 221.942ZM850.724 221.942C850.82 220.93 850.706 219.909 850.387 218.944C850.069 217.98 849.554 217.092 848.875 216.34C848.196 215.588 847.369 214.986 846.445 214.575C845.522 214.164 844.524 213.951 843.514 213.951C842.505 213.951 841.506 214.164 840.583 214.575C839.66 214.986 838.832 215.588 838.153 216.34C837.475 217.092 836.959 217.98 836.641 218.944C836.323 219.909 836.208 220.93 836.305 221.942C836.208 222.954 836.323 223.975 836.641 224.94C836.959 225.904 837.475 226.791 838.153 227.544C838.832 228.296 839.66 228.898 840.583 229.309C841.506 229.72 842.505 229.933 843.514 229.933C844.524 229.933 845.522 229.72 846.445 229.309C847.369 228.898 848.196 228.296 848.875 227.544C849.554 226.791 850.069 225.904 850.387 224.94C850.706 223.975 850.82 222.954 850.724 221.942Z" fill="black"/>
<path d="M869.761 225.99V214.548H866.04V209.497H869.761V196.516H875.575V209.497H882.22V214.548H875.575V226.124C875.575 228.968 876.505 229.804 878.034 229.804C879.13 229.8 880.185 229.382 880.991 228.633L883.815 232.681C882.963 233.486 881.96 234.111 880.864 234.519C879.768 234.927 878.603 235.11 877.436 235.056C872.784 235.056 869.595 232.681 869.595 226.024" fill="black"/>
<path d="M898.832 212.106H901.124C902.064 212.225 903.018 212.141 903.923 211.859C904.827 211.576 905.662 211.102 906.369 210.469C907.077 209.835 907.643 209.056 908.027 208.185C908.412 207.313 908.607 206.369 908.599 205.415C908.642 204.575 908.51 203.735 908.211 202.949C907.913 202.163 907.456 201.448 906.868 200.85C906.281 200.252 905.576 199.784 904.798 199.475C904.021 199.167 903.188 199.025 902.353 199.059C900.831 198.992 899.325 199.399 898.041 200.225C896.757 201.051 895.757 202.256 895.177 203.675L890.36 200.899C891.376 198.59 893.078 196.655 895.232 195.36C897.386 194.066 899.886 193.477 902.387 193.672C903.98 193.556 905.58 193.775 907.086 194.315C908.591 194.854 909.968 195.703 911.13 196.807C912.292 197.912 913.214 199.247 913.836 200.729C914.459 202.211 914.768 203.806 914.746 205.415C914.872 208.297 913.859 211.112 911.929 213.244C909.999 215.376 907.308 216.651 904.447 216.79V222.176H898.832V212.106ZM897.536 230.741C897.536 229.939 897.773 229.155 898.216 228.488C898.659 227.822 899.289 227.303 900.025 226.998C900.762 226.692 901.572 226.614 902.353 226.773C903.133 226.932 903.85 227.321 904.41 227.89C904.971 228.46 905.352 229.184 905.503 229.972C905.654 230.759 905.57 231.574 905.26 232.313C904.951 233.052 904.431 233.682 903.765 234.123C903.1 234.564 902.319 234.795 901.523 234.789C900.995 234.793 900.472 234.692 899.984 234.489C899.496 234.287 899.053 233.988 898.682 233.611C898.31 233.234 898.018 232.786 897.821 232.293C897.624 231.8 897.527 231.272 897.536 230.741Z" fill="black"/>
<path d="M926.308 201.133C925.636 200.822 925.068 200.322 924.672 199.692C924.277 199.063 924.072 198.331 924.082 197.587C924.082 196.548 924.491 195.553 925.22 194.819C925.949 194.085 926.938 193.672 927.969 193.672C929 193.672 929.989 194.085 930.718 194.819C931.447 195.553 931.856 196.548 931.856 197.587C931.791 198.925 931.366 200.22 930.627 201.334L927.304 207.69H924.314L926.308 201.133ZM937.338 201.133C936.656 200.829 936.076 200.332 935.67 199.702C935.263 199.073 935.046 198.338 935.045 197.587C935.045 196.54 935.459 195.535 936.194 194.795C936.929 194.055 937.926 193.639 938.966 193.639C940.006 193.639 941.003 194.055 941.738 194.795C942.473 195.535 942.886 196.54 942.886 197.587C942.795 198.92 942.373 200.208 941.657 201.334L938.335 207.69H935.344L937.338 201.133Z" fill="black"/>
<g filter="url(#filter0_d_2_3)">
<path d="M202.731 102.038C202.737 122.232 196.795 141.974 185.657 158.766C174.518 175.558 158.683 188.646 140.156 196.374C121.629 204.102 101.241 206.122 81.5736 202.179C61.9057 198.236 43.8413 188.508 29.6657 174.224C15.4902 159.94 5.84067 141.743 1.93804 121.936C-1.96459 102.128 0.0550661 81.6002 7.74147 62.9488C15.4279 44.2974 28.4356 28.361 45.1188 17.1558C61.8021 5.95055 81.4111 -0.0198056 101.465 4.93615e-05C128.349 4.93615e-05 154.131 10.7541 173.141 29.8963C192.151 49.0385 202.83 75.0008 202.83 102.072" fill="#FDB913"/>
</g>
<path d="M151.898 155.5H128.642C127.761 155.5 126.916 155.147 126.293 154.52C125.669 153.893 125.319 153.042 125.319 152.154V143.924C120.519 148.711 114.807 152.471 108.527 154.978C102.246 157.485 95.527 158.686 88.7734 158.511C64.2876 158.511 48.739 144.794 47.5762 125.056V151.184C47.5762 156.659 49.7359 161.909 53.5802 165.78C57.4245 169.651 62.6385 171.826 68.0751 171.826H134.522C145.985 171.826 155.354 164.867 155.32 152.522C155.32 153.41 154.97 154.261 154.347 154.888C153.724 155.515 152.879 155.868 151.998 155.868" fill="black"/>
<path d="M92.5942 87.4854H52.5266C51.8693 87.481 51.2177 87.6075 50.6092 87.8578C50.0007 88.108 49.4474 88.4769 48.9811 88.9434C48.5149 89.4098 48.1448 89.9645 47.8923 90.5756C47.6398 91.1866 47.5098 91.8419 47.5098 92.5037V120.138C48.739 100.065 65.7496 87.5858 92.5942 87.5858" fill="black"/>
<path d="M103.658 103.143C100.3 102.56 96.8451 103.069 93.7937 104.596C90.7422 106.122 88.2526 108.587 86.6852 111.634C85.1179 114.68 84.5543 118.15 85.0759 121.541C85.5976 124.931 87.1775 128.067 89.5868 130.493C91.9961 132.919 95.1098 134.51 98.4769 135.035C101.844 135.561 105.29 134.993 108.315 133.415C111.341 131.836 113.789 129.329 115.305 126.257C116.821 123.184 117.326 119.705 116.748 116.324C116.181 113.036 114.619 110.006 112.275 107.646C109.932 105.287 106.923 103.714 103.658 103.143Z" fill="black"/>
<path d="M82.9594 65.4384L83.5907 65.1373L85.0193 64.4013C88.7468 62.5305 92.7953 61.3949 96.9466 61.0557C98.0762 61.0557 99.2058 61.0557 100.269 61.0557C114.754 61.0557 122.495 69.085 122.495 82.4671V87.5857H155.088V84.2402C155.088 50.785 135.154 32.4516 103.89 32.4516C92.8907 32.2939 82.0275 34.9165 72.2946 40.0794L69.4042 41.7521L69.0055 42.0197C67.523 43.0313 66.2532 44.3274 65.2687 45.8338C64.2842 47.3401 63.6043 49.0271 63.268 50.7983C62.9316 52.5695 62.9453 54.3901 63.3085 56.1559C63.6716 57.9217 64.3769 59.5982 65.3841 61.0892C67.3048 63.8862 70.1976 65.856 73.4907 66.6093C75.1025 66.9838 76.7681 67.0631 78.4078 66.8435C80.0798 66.5787 81.6966 66.036 83.192 65.2376" fill="black"/>
<path d="M295.856 166.507C294.949 163.754 294.38 160.901 294.162 158.009C290.502 161.622 286.086 164.365 281.238 166.038C275.241 168.149 268.918 169.169 262.566 169.049C250.539 169.049 241.735 166.629 236.153 161.79C233.418 159.487 231.237 156.59 229.775 153.316C228.314 150.041 227.609 146.476 227.715 142.887C227.446 137.206 228.697 131.556 231.336 126.528C233.72 122.466 237.168 119.145 241.303 116.926C246.058 114.437 251.169 112.71 256.453 111.807C262.323 110.715 268.724 109.722 275.656 108.83C280.496 108.503 285.236 107.29 289.643 105.25C290.846 104.487 291.819 103.407 292.457 102.128C293.096 100.848 293.375 99.4178 293.265 97.9904C293.246 96.445 292.784 94.938 291.936 93.6502C291.087 92.3625 289.887 91.3487 288.481 90.7306C284.485 88.8103 280.079 87.9139 275.656 88.1211C270.775 87.6762 265.902 89.0578 261.968 92.0019C259.137 94.7366 257.309 98.3573 256.785 102.273H231.037C231.147 97.6907 232.047 93.1628 233.695 88.8906C235.352 84.7219 238.053 81.0566 241.536 78.2518C245.709 75.0075 250.506 72.6719 255.622 71.3934C262.551 69.6476 269.679 68.8376 276.819 68.9847C283.867 68.8352 290.901 69.6798 297.717 71.4938C302.801 72.8267 307.516 75.3096 311.505 78.7536C314.987 81.9637 317.576 86.0349 319.013 90.5633C320.633 95.7343 321.418 101.133 321.339 106.555V166.774L295.856 166.507ZM293.962 119.87C292.172 121.359 290.071 122.423 287.816 122.981C285.136 123.762 281.249 124.598 276.155 125.491C270.405 126.149 264.852 127.994 259.842 130.91C258.377 131.999 257.203 133.437 256.426 135.096C255.649 136.754 255.293 138.581 255.39 140.412C255.39 147.504 259.82 151.05 268.679 151.05C272.071 151.094 275.444 150.539 278.646 149.411C281.506 148.418 284.163 146.91 286.487 144.962C288.669 143.095 290.473 140.823 291.803 138.271C293.136 135.808 293.833 133.046 293.83 130.241L293.962 119.87Z" fill="black"/>
<path d="M390.51 103.812H416.159V130.91C416.181 135.821 415.36 140.7 413.734 145.33C412.104 149.904 409.495 154.061 406.092 157.507C402.322 161.254 397.787 164.131 392.803 165.938C386.723 168.141 380.292 169.196 373.832 169.049C367.198 169.213 360.589 168.159 354.33 165.938C349.363 164.142 344.833 161.303 341.04 157.608C337.624 154.197 335.053 150.025 333.532 145.43C331.962 140.684 331.177 135.711 331.206 130.71V35.3622H358.35V71.2931H416.026V89.0913H358.383V128.167C358.078 133.123 359.384 138.043 362.104 142.185C363.594 143.933 365.48 145.295 367.601 146.157C369.723 147.018 372.02 147.354 374.297 147.136C376.563 147.324 378.841 146.984 380.955 146.142C383.07 145.301 384.964 143.981 386.49 142.285C389.336 138.296 390.722 133.437 390.411 128.535L390.51 103.812Z" fill="black"/>
<path d="M477.324 169.016C469.604 169.141 461.922 167.895 454.632 165.336C448.362 163.122 442.616 159.625 437.754 155.065C433.127 150.632 429.54 145.214 427.256 139.207C424.803 132.714 423.586 125.813 423.668 118.866C423.584 111.853 424.848 104.889 427.389 98.3584C429.739 92.337 433.394 86.9195 438.087 82.5006C442.962 78.032 448.695 74.6163 454.931 72.4641C462.122 69.9773 469.688 68.766 477.29 68.8843C484.795 68.7689 492.262 69.9806 499.351 72.4641C505.506 74.6424 511.158 78.0569 515.963 82.5006C520.607 86.9008 524.227 92.2821 526.561 98.258C529.11 104.857 530.373 111.887 530.282 118.967C530.38 126.014 529.116 133.014 526.561 139.575C524.204 145.549 520.588 150.937 515.963 155.366C511.173 159.83 505.517 163.248 499.351 165.403C492.292 167.87 484.861 169.081 477.39 168.982M477.39 147.872C494.201 147.872 502.607 138.192 502.607 118.833C502.607 99.4735 494.179 89.8719 477.324 90.0281C460.49 90.0281 452.074 99.6409 452.074 118.866C452.074 138.092 460.49 147.772 477.324 147.906" fill="black"/>
<path d="M661.183 166.507V108.83C661.412 103.741 659.833 98.736 656.731 94.7118C655.301 92.9421 653.482 91.5312 651.418 90.5906C649.354 89.6501 647.101 89.2055 644.837 89.2921C642.433 89.2411 640.049 89.7383 637.862 90.7463C635.676 91.7544 633.745 93.2473 632.212 95.1132C628.822 99.1641 627.046 104.338 627.229 109.633V166.507H599.819V109.198C599.876 106.02 599.586 102.845 598.955 99.7301C598.535 97.578 597.548 95.5791 596.098 93.9424C594.68 92.4756 592.886 91.4333 590.915 90.9313C588.397 90.2859 585.805 89.9822 583.207 90.0281C572.133 90.0281 566.596 96.2173 566.596 108.596V166.473H539.02V71.2597H564.901V85.177C567.682 79.6193 572.136 75.0881 577.626 72.2299C583.248 69.8203 589.326 68.6784 595.434 68.8843C598.595 68.854 601.753 69.1116 604.869 69.6539C607.463 70.1146 609.965 70.9959 612.278 72.2634C614.558 73.5645 616.658 75.1616 618.524 77.0139C620.692 79.166 622.681 81.4934 624.471 83.9727C626.937 79.0556 630.862 75.0333 635.701 72.4641C640.999 69.9372 646.817 68.7104 652.678 68.8843C657.588 68.8261 662.469 69.6416 667.097 71.2931C671.243 72.7541 675.059 75.0283 678.327 77.9842C681.39 80.8172 683.873 84.2269 685.636 88.0207C687.405 91.9032 688.312 96.1276 688.294 100.399V166.406L661.183 166.507Z" fill="black"/>
<path d="M698.194 166.507V36.4997H725.338V83.6716C728.944 78.8783 733.635 75.023 739.022 72.4274C744.409 69.8317 750.334 68.5711 756.302 68.7506C762.532 68.6386 768.715 69.8586 774.442 72.3302C779.626 74.6039 784.227 78.0361 787.898 82.3668C791.683 86.9562 794.529 92.2547 796.27 97.9569C798.238 104.381 799.202 111.074 799.128 117.796C799.26 125.095 798.136 132.362 795.805 139.274C793.773 145.193 790.6 150.65 786.469 155.333C782.502 159.714 777.608 163.144 772.15 165.369C766.382 167.679 760.217 168.816 754.01 168.715C741.008 168.715 731.329 164.009 724.973 154.597L724.773 166.206L698.194 166.507ZM747.598 148.508C750.852 148.586 754.08 147.902 757.026 146.508C759.973 145.115 762.557 143.05 764.575 140.478C769.169 134.554 771.524 127.179 771.22 119.669C771.22 100.065 763.301 90.2511 747.465 90.2288C731.961 90.2288 724.208 100.555 724.208 121.208C723.876 128.396 726.249 135.445 730.853 140.947C732.897 143.363 735.446 145.294 738.318 146.601C741.19 147.908 744.314 148.56 747.465 148.508" fill="black"/>
<path d="M834.411 125.491C834.497 131.895 836.949 138.038 841.288 142.72C843.446 144.866 846.02 146.541 848.85 147.641C851.68 148.74 854.704 149.241 857.734 149.11C861.903 149.198 866.026 148.232 869.728 146.3C871.309 145.524 872.716 144.428 873.859 143.081C875.002 141.735 875.858 140.165 876.373 138.471H904.779C901.904 147.778 895.901 155.786 887.801 161.12C879.177 166.573 869.143 169.332 858.963 169.049C824.189 169.049 806.802 151.753 806.802 117.16C806.667 110.32 807.794 103.514 810.125 97.0871C812.305 91.3221 815.706 86.1048 820.092 81.7981C824.594 77.4207 829.991 74.0866 835.906 72.0291C842.804 69.6776 850.054 68.5457 857.335 68.6836C873.46 68.6836 885.642 73.3896 893.881 82.8017C902.121 92.2138 906.252 106.41 906.274 125.39L834.411 125.491ZM877.868 109.599C877.802 106.431 877.125 103.307 875.874 100.399C874.791 97.9342 873.2 95.729 871.207 93.9296C869.214 92.1302 866.864 90.7775 864.312 89.9612C861.784 89.1163 859.136 88.6871 856.472 88.6899C851.172 88.6093 846.044 90.586 842.152 94.21C837.962 98.2459 835.496 103.765 835.275 109.599H877.868Z" fill="black"/>
<path d="M914.115 166.507V71.2597H939.996V82.6678C941.941 79.7745 944.343 77.2207 947.106 75.107C951.669 71.7343 957.053 69.6652 962.687 69.1185C965.367 68.8732 968.125 68.7505 970.96 68.7505H974.548V94.4775C972.019 94.0927 969.465 93.9026 966.907 93.9088C950.073 93.9088 941.657 101.581 941.657 116.926V166.473L914.115 166.507Z" fill="black"/>
<path d="M1052.46 153.593C1050.23 158.14 1046.42 161.709 1041.76 163.63C1036.12 166.118 1030.01 167.34 1023.85 167.209C1016.39 167.447 1008.98 166.03 1002.12 163.061C996.61 160.567 991.743 156.823 987.904 152.121C984.246 147.502 981.576 142.172 980.063 136.464C978.442 130.536 977.626 124.413 977.638 118.264C977.569 111.405 978.786 104.595 981.226 98.1911C983.438 92.3814 986.756 87.0628 990.994 82.5341C995.068 78.2313 999.976 74.8155 1005.41 72.4975C1011.04 70.0868 1017.1 68.8683 1023.22 68.9178C1036.22 68.9178 1045.98 73.6907 1052.49 83.2366V71.2931H1080.07V167.477C1080.21 174.061 1078.83 180.588 1076.05 186.546C1073.46 191.973 1069.66 196.724 1064.95 200.43C1059.99 204.266 1054.35 207.126 1048.34 208.861C1035.1 212.666 1021.07 212.666 1007.84 208.861C1002.07 207.221 996.639 204.534 991.824 200.932C987.45 197.607 983.864 193.345 981.326 188.453C978.711 183.277 977.399 177.533 977.505 171.726H1003.15C1003.03 174.3 1003.54 176.864 1004.63 179.197C1005.72 181.529 1007.36 183.558 1009.4 185.108C1014.27 188.481 1020.11 190.151 1026.01 189.858C1032.66 190.073 1039.2 188.138 1044.68 184.338C1047.1 182.687 1049.07 180.449 1050.41 177.829C1051.74 175.21 1052.4 172.294 1052.32 169.35L1052.46 153.593ZM1029.77 147.404C1032.91 147.49 1036.03 146.906 1038.94 145.689C1041.84 144.472 1044.46 142.651 1046.61 140.345C1051.26 135.056 1053.65 128.129 1053.25 121.075C1053.25 100.689 1045.41 90.4965 1029.73 90.4965C1014.05 90.4965 1006.2 100.176 1006.18 119.536C1005.78 126.904 1008.15 134.153 1012.82 139.843C1014.91 142.28 1017.5 144.222 1020.42 145.529C1023.34 146.836 1026.51 147.477 1029.7 147.404" fill="black"/>
</g>
<defs>
<filter id="filter0_d_2_3" x="-4" y="0" width="210.83" height="212.144" filterUnits="userSpaceOnUse" color-interpolation-filters="sRGB">
<feFlood flood-opacity="0" result="BackgroundImageFix"/>
<feColorMatrix in="SourceAlpha" type="matrix" values="0 0 0 0 0 0 0 0 0 0 0 0 0 0 0 0 0 0 127 0" result="hardAlpha"/>
<feOffset dy="4"/>
<feGaussianBlur stdDeviation="2"/>
<feComposite in2="hardAlpha" operator="out"/>
<feColorMatrix type="matrix" values="0 0 0 0 0 0 0 0 0 0 0 0 0 0 0 0 0 0 0.25 0"/>
<feBlend mode="normal" in2="BackgroundImageFix" result="effect1_dropShadow_2_3"/>
<feBlend mode="normal" in="SourceGraphic" in2="effect1_dropShadow_2_3" result="shape"/>
</filter>
<clipPath id="clip0_2_3">
<rect width="1080" height="247" fill="white"/>
</clipPath>
</defs>
</svg>
